<svg xmlns="http://www.w3.org/2000/svg" width="48" height="48" viewBox="0 0 48 48">
  <g id="Group_975" data-name="Group 975" transform="translate(-197 -3431)">
    <rect id="Rectangle_273" data-name="Rectangle 273" width="48" height="48" transform="translate(197 3431)" fill="none"/>
    <path id="Path_302" data-name="Path 302" d="M289.45,591.6a11.037,11.037,0,0,1-3.189.874A5.565,5.565,0,0,0,288.7,589.4a11.111,11.111,0,0,1-3.525,1.347,5.559,5.559,0,0,0-9.464,5.064,15.753,15.753,0,0,1-11.444-5.8,5.561,5.561,0,0,0,1.717,7.413,5.5,5.5,0,0,1-2.514-.695v.071a5.556,5.556,0,0,0,4.454,5.445,5.506,5.506,0,0,1-2.508.095A5.558,5.558,0,0,0,270.6,606.2a11.137,11.137,0,0,1-6.9,2.377,11.441,11.441,0,0,1-1.323-.077,15.793,15.793,0,0,0,24.31-13.3c0-.24-.005-.479-.015-.719A11.288,11.288,0,0,0,289.45,591.6Z" transform="translate(-55.386 2855.003)" fill="#fff"/>
  </g>
</svg>
