<svg xmlns="http://www.w3.org/2000/svg" width="48" height="48" viewBox="0 0 48 48">
  <g id="Group_979" data-name="Group 979" transform="translate(-409 -3431)">
    <rect id="Rectangle_275" data-name="Rectangle 275" width="48" height="48" transform="translate(409 3431)" fill="none"/>
    <g id="sTfMbR" transform="translate(421 3441)">
      <g id="Group_142" data-name="Group 142">
        <path id="Path_312" data-name="Path 312" d="M-3311.13,531.346h4.349c.059.369.119.738.179,1.114l1.109.056c.583,3.852,1.681,4.733,4.974,5.138.016.291.032.587.05.929l1.242.176v4.426a11.119,11.119,0,0,1-6.209-2v.766c0,2.817.008,5.634-.006,8.45a8.194,8.194,0,0,1-5.749,7.736c-.533.162-1.086.259-1.63.385h-1.691c-.675-.177-1.36-.321-2.021-.536a10.8,10.8,0,0,1-3.476-2.335,8.023,8.023,0,0,1-3.056-7.859,7.907,7.907,0,0,1,5.224-6.345,6.826,6.826,0,0,1,3.945-.422c.021.365.039.677.057,1.006l1.249.1v4.512a3.737,3.737,0,0,0-4.744,2.884c-.377,2.6.771,3.9,3.447,3.213a3.7,3.7,0,0,0,2.7-3.833q.01-8.419.008-16.839C-3311.177,531.824-3311.146,531.585-3311.13,531.346Z" transform="translate(3323.195 -531.346)" fill="#fff"/>
      </g>
    </g>
  </g>
</svg>
