<svg xmlns="http://www.w3.org/2000/svg" width="48" height="48" viewBox="0 0 48 48">
  <g id="Group_978" data-name="Group 978" transform="translate(-356 -3431)">
    <rect id="Rectangle_276" data-name="Rectangle 276" width="48" height="48" transform="translate(356 3431)" fill="none"/>
    <g id="youtube-symbol" transform="translate(365 3445)">
      <path id="Path_311" data-name="Path 311" d="M29.389,18.029a3.779,3.779,0,0,0-3.233-2.939,100.486,100.486,0,0,0-11.2-.414,100.5,100.5,0,0,0-11.2.414A3.778,3.778,0,0,0,.527,18.029,32.028,32.028,0,0,0,0,25.1a32.018,32.018,0,0,0,.521,7.069,3.777,3.777,0,0,0,3.232,2.939,100.416,100.416,0,0,0,11.2.414,100.4,100.4,0,0,0,11.2-.414,3.779,3.779,0,0,0,3.232-2.939,32,32,0,0,0,.523-7.069A32.023,32.023,0,0,0,29.389,18.029ZM11.094,29.74V19.85l9.508,4.96Z" transform="translate(0 -14.676)" fill="#fff"/>
    </g>
  </g>
</svg>
